<svg width="20" height="20" viewBox="0 0 20 20" fill="none" xmlns="http://www.w3.org/2000/svg">
<g clip-path="url(#clip0_1_406)">
<path d="M14.6251 12.9868C14.6092 12.9851 12.307 13.053 11.9647 10.5859C12.345 10.3205 12.6956 9.97602 13.0044 9.55797C13.6052 8.74469 13.9923 7.72445 14.1302 6.6209C14.1776 6.57805 14.2168 6.52473 14.2432 6.46187C14.4927 5.86754 14.6192 5.23293 14.6192 4.57559C14.6192 2.05262 12.716 0 10.3766 0C9.76475 0 9.17116 0.140937 8.61053 0.419258C8.39667 0.435586 8.1871 0.473203 7.98612 0.53125C7.0253 0.808867 6.24343 1.52125 5.78448 2.53727C5.33893 3.52375 5.25112 4.68504 5.53729 5.80727C5.59776 6.04434 5.67464 6.2773 5.76581 6.49988C5.7905 6.56008 5.82729 6.61145 5.87147 6.65371C6.09483 8.37617 6.9144 9.80332 8.0319 10.5825C7.68854 13.0538 5.38714 12.9852 5.37128 12.9869C3.71573 13.0431 2.38593 14.4065 2.38593 16.0755V19.5497C2.38593 19.7984 2.58753 20 2.83624 20H6.79057H13.2057H17.1601C17.4088 20 17.6105 19.7984 17.6105 19.5497V16.0755C17.6104 14.4064 16.2807 13.043 14.6251 12.9868ZM8.23616 1.39652C8.4005 1.34902 8.57405 1.32086 8.75202 1.31285C8.81807 1.30988 8.88264 1.29242 8.9412 1.26164C9.3971 1.02211 9.88007 0.900664 10.3766 0.900664C12.2194 0.900664 13.7186 2.54922 13.7186 4.57559C13.7186 4.63641 13.7169 4.69691 13.7142 4.75719C13.3568 4.39422 12.8602 4.16863 12.3118 4.16863H9.24261C9.05999 4.16863 8.88667 4.11129 8.74132 4.00277C8.61721 3.91016 8.52128 3.78566 8.46397 3.64277C8.37522 3.42176 8.15639 3.28352 7.91819 3.29848C7.67913 3.31371 7.47796 3.47973 7.41757 3.71172C7.23971 4.39516 6.88507 5.02469 6.3985 5.5352C5.94577 3.67195 6.76284 1.82219 8.23616 1.39652ZM7.84436 9.18516C7.25839 8.4693 6.87464 7.50262 6.753 6.4443C7.32124 5.93785 7.77046 5.30762 8.06292 4.60855C8.10729 4.64949 8.15389 4.6882 8.20257 4.72457C8.50475 4.95008 8.86436 5.06934 9.24264 5.06934H12.3118C12.7461 5.06934 13.1204 5.3298 13.2874 5.70258C13.2874 5.70578 13.2869 5.70883 13.2869 5.71203C13.2869 8.25414 11.8119 10.3223 9.99886 10.3223C9.20979 10.3223 8.4446 9.91848 7.84436 9.18516ZM8.87909 11.0247C9.23608 11.1539 9.61159 11.223 9.99886 11.223C10.383 11.223 10.7584 11.1561 11.1177 11.0271C11.2826 11.8861 11.7602 12.6348 12.4274 13.1503L10.0627 16.5178C10.0473 16.5398 10.0258 16.5509 9.99897 16.5509C9.97214 16.5509 9.95069 16.5397 9.9353 16.5178L7.57007 13.1495C8.23725 12.6335 8.71471 11.8843 8.87909 11.0247ZM16.7098 19.0993H13.2057H6.79057H3.28655V16.0754C3.28655 14.8675 4.26925 13.8848 5.47714 13.8848C5.49354 13.8848 6.21819 13.8672 6.79077 13.607L9.19815 17.0354C9.38112 17.296 9.6805 17.4516 9.99893 17.4516C9.99893 17.4516 9.99893 17.4516 9.99897 17.4516C10.3174 17.4516 10.6168 17.296 10.7998 17.0354L13.2067 13.6075C13.8597 13.8848 14.5028 13.8848 14.5192 13.8848C15.7271 13.8848 16.7098 14.8675 16.7098 16.0754V19.0993Z" fill="black"/>
</g>
<defs>
<clipPath id="clip0_1_406">
<rect width="20" height="20" fill="white"/>
</clipPath>
</defs>
</svg>
